# xmcd CD database file
#
# Track frame offsets:
#	150
#	15047
#	28957
#	47577
#	69502
#	86675
#	103747
#	120177
#	139002
#	154135
#	174500
#
# Disc length: 2634 seconds
#
# Revision: 0
# Processed by: cddbd v1.5.1PL0 Copyright (c) Steve Scherf et al.
# Submitted via: CDex 1.50beta10
#
DISCID=810a480b
DTITLE=FOOT STAMP - 風穴
DYEAR=2003
DGENRE=Rock
TTITLE0=光射す道
TTITLE1=本当の言葉
TTITLE2=ふるさと
TTITLE3=かけがえのない人へ
TTITLE4=立ち上がれ
TTITLE5=影
TTITLE6=あこがれのまま
TTITLE7=明日に向かって
TTITLE8=野良猫
TTITLE9=冬空
TTITLE10=幸せを信じて
EXTD=YEAR: 2003
EXTT0=
EXTT1=
EXTT2=
EXTT3=
EXTT4=
EXTT5=
EXTT6=
EXTT7=
EXTT8=
EXTT9=
EXTT10=
PLAYORDER=
